G04 DipTrace 2.4.0.2*
%INTop.gbr*%
%MOIN*%
%ADD13C,0.013*%
%ADD14C,0.025*%
%ADD16R,0.0413X0.0256*%
%ADD17C,0.0591*%
%ADD18R,0.0472X0.1181*%
%ADD19R,0.1181X0.0472*%
%ADD20R,0.0591X0.0512*%
%ADD21C,0.04*%
%FSLAX44Y44*%
G04*
G70*
G90*
G75*
G01*
%LNTop*%
%LPD*%
X8690Y11440D2*
D13*
Y10190D1*
X9565D1*
X7940D2*
X8690D1*
X4690D2*
X6315D1*
X7940D1*
X6190Y6065D2*
X6565Y5690D1*
X7190D1*
X6221Y5066D2*
X6566D1*
X7190Y5690D1*
X10690Y8440D2*
X10190D1*
X9565Y7815D1*
X10690Y9440D2*
X9940Y8690D1*
X7940D1*
Y7815D1*
X10690Y10440D2*
X10190Y9940D1*
Y9440D1*
X9940Y9190D1*
X7690D1*
X6315Y7815D1*
X10690Y6440D2*
Y6315D1*
X10065Y6940D1*
X4690D1*
Y7815D1*
X10690Y5440D2*
X9815D1*
X9565Y5690D1*
X4315Y5938D2*
X4817D1*
X5315Y5440D1*
X8440Y6440D2*
X7690D1*
X7565Y6565D1*
X5315D1*
Y5440D1*
X4440Y4440D2*
X5063D1*
X5315Y4692D1*
Y4940D1*
X4565D1*
X4315Y5190D1*
D21*
X6190Y6065D3*
X4440Y4440D3*
X8440Y6440D3*
X10260Y11566D2*
D14*
X11040D1*
X10260Y11318D2*
X11040D1*
X4090Y11069D2*
X4245D1*
X5135D2*
X5248D1*
X7135D2*
X7248D1*
X10135D2*
X11040D1*
X5217Y10820D2*
X5788D1*
X6842D2*
X7413D1*
X10092D2*
X10255D1*
X5217Y10572D2*
X5788D1*
X6842D2*
X7413D1*
X5217Y9825D2*
X5788D1*
X6842D2*
X7413D1*
X8467D2*
X9038D1*
X5217Y9577D2*
X5788D1*
X6842D2*
X7413D1*
X8467D2*
X9038D1*
X4090Y9328D2*
X7335D1*
X4090Y9079D2*
X7089D1*
X4090Y8831D2*
X6839D1*
X5217Y8582D2*
X5788D1*
X5217Y8333D2*
X5788D1*
X7326D2*
X7413D1*
X8467D2*
X9038D1*
X5217Y8085D2*
X5788D1*
X7076D2*
X7413D1*
X8467D2*
X9038D1*
X5217Y7836D2*
X5788D1*
X6842D2*
X7413D1*
X8467D2*
X9038D1*
X10092D2*
X10271D1*
X5217Y7587D2*
X5788D1*
X6842D2*
X7413D1*
X8467D2*
X9038D1*
X5217Y7339D2*
X5788D1*
X6842D2*
X7413D1*
X8467D2*
X9038D1*
X4090Y6841D2*
X4351D1*
X4090Y6593D2*
X4960D1*
X8904D2*
X9921D1*
X8920Y6344D2*
X10112D1*
X5670Y5846D2*
X5755D1*
X8069D2*
X8686D1*
X5811Y5598D2*
X6167D1*
X8069D2*
X8686D1*
X8069Y5349D2*
X8686D1*
X7092Y5100D2*
X10218D1*
X7096Y4852D2*
X7286D1*
X8096D2*
X8286D1*
X9096D2*
X9286D1*
X10096D2*
X11040D1*
X5811Y4603D2*
X6128D1*
X10252D2*
X11040D1*
X5811Y4354D2*
X6112D1*
X10268D2*
X11040D1*
X4787Y4106D2*
X6214D1*
X10166D2*
X11040D1*
X5644Y5833D2*
X5787D1*
Y5462D1*
X6331Y5459D1*
X6191Y5598D1*
X6048Y5622D1*
X5935Y5676D1*
X5841Y5758D1*
X5772Y5861D1*
X5733Y5980D1*
X5727Y6104D1*
X5759Y6236D1*
X5647Y6235D1*
X5645Y5835D1*
X5787Y4675D2*
Y4299D1*
X5392D1*
X5296Y4207D1*
X5194Y4137D1*
X5063Y4110D1*
X4762Y4104D1*
X4708Y4065D1*
X6272D1*
X6189Y4189D1*
X6146Y4306D1*
X6130Y4430D1*
X6141Y4554D1*
X6182Y4676D1*
X5785Y4673D1*
X10236Y11316D2*
X10195Y11198D1*
X10129Y11092D1*
X10066Y11029D1*
Y10284D1*
X10136Y10353D1*
X10130Y10430D1*
X10141Y10554D1*
X10180Y10673D1*
X10244Y10780D1*
X10331Y10870D1*
X10435Y10939D1*
X10551Y10983D1*
X10675Y11000D1*
X10799Y10990D1*
X10918Y10952D1*
X11026Y10889D1*
X11062Y10854D1*
X11065Y11815D1*
X10108D1*
X10186Y11700D1*
X10232Y11584D1*
X10250Y11440D1*
X10236Y11316D1*
X10436Y7943D2*
X10346Y7997D1*
X10277Y8065D1*
X10067Y7850D1*
X10066Y7268D1*
X10146Y7306D1*
X10130Y7430D1*
X10141Y7554D1*
X10180Y7673D1*
X10244Y7780D1*
X10331Y7870D1*
X10438Y7940D1*
X10188Y6193D2*
X10146Y6306D1*
X10133Y6403D1*
X9929Y6609D1*
X8874Y6608D1*
X8903Y6487D1*
X8905Y6440D1*
X8888Y6316D1*
X8834Y6191D1*
X10190D1*
X8190Y4689D2*
X8244Y4780D1*
X8331Y4870D1*
X8435Y4939D1*
X8551Y4983D1*
X8675Y5000D1*
X8799Y4990D1*
X8918Y4952D1*
X9026Y4889D1*
X9117Y4803D1*
X9191Y4689D1*
X9244Y4780D1*
X9331Y4870D1*
X9435Y4939D1*
X9551Y4983D1*
X9675Y5000D1*
X9799Y4990D1*
X9918Y4952D1*
X10026Y4889D1*
X10117Y4803D1*
X10186Y4700D1*
X10232Y4584D1*
X10250Y4440D1*
X10236Y4316D1*
X10195Y4198D1*
X10105Y4067D1*
X11065Y4065D1*
Y5022D1*
X10936Y4937D1*
X10819Y4895D1*
X10695Y4880D1*
X10571Y4893D1*
X10453Y4932D1*
X10346Y4997D1*
X10242Y5107D1*
X9815Y5110D1*
X9690Y5136D1*
X9606Y5185D1*
X9171Y5189D1*
X8709D1*
Y6060D1*
X8661Y6031D1*
X8545Y5987D1*
X8420Y5975D1*
X8298Y5997D1*
X8185Y6051D1*
X8118Y6110D1*
X8045D1*
X8046Y5189D1*
X7159D1*
X6918Y4951D1*
X7026Y4889D1*
X7117Y4803D1*
X7191Y4689D1*
X7244Y4780D1*
X7331Y4870D1*
X7435Y4939D1*
X7551Y4983D1*
X7675Y5000D1*
X7799Y4990D1*
X7918Y4952D1*
X8026Y4889D1*
X8117Y4803D1*
X8191Y4689D1*
X5091Y11046D2*
X5191D1*
Y10518D1*
X5811Y10520D1*
X5814Y10893D1*
X5695Y10880D1*
X5571Y10893D1*
X5453Y10932D1*
X5346Y10997D1*
X5257Y11084D1*
X5191Y11186D1*
X5129Y11092D1*
X5083Y11045D1*
X5191Y9862D2*
Y9334D1*
X4189D1*
Y11046D1*
X4294D1*
X4257Y11084D1*
X4189Y11189D1*
X4146Y11306D1*
X4130Y11430D1*
X4141Y11554D1*
X4180Y11673D1*
X4244Y11780D1*
X4279Y11816D1*
X4065Y11815D1*
Y6460D1*
X4875Y6459D1*
Y6260D1*
X4942Y6243D1*
X4985Y6315D1*
X4986Y6569D1*
X4940Y6610D1*
X4690D1*
X4568Y6633D1*
X4463Y6700D1*
X4391Y6801D1*
X4360Y6940D1*
Y6960D1*
X4189Y6959D1*
Y8671D1*
X5191D1*
Y7268D1*
X5811Y7270D1*
X5814Y8459D1*
Y8671D1*
X6700D1*
X7440Y9406D1*
X7439Y9862D1*
X6819Y9860D1*
X6816Y9334D1*
X5814D1*
Y9862D1*
X5194Y9860D1*
X6816Y10893D2*
Y10518D1*
X7436Y10520D1*
X7439Y10940D1*
X7346Y10997D1*
X7257Y11084D1*
X7191Y11186D1*
X7129Y11092D1*
X7042Y11004D1*
X6936Y10937D1*
X6815Y10894D1*
X6816Y7846D2*
Y7268D1*
X7436Y7270D1*
X7439Y8471D1*
X6816Y7849D1*
X8441Y9862D2*
Y9518D1*
X9061Y9520D1*
X9064Y9862D1*
X8444Y9860D1*
X8441Y8362D2*
Y7268D1*
X9061Y7270D1*
X9064Y8362D1*
X8444Y8360D1*
D16*
X5315Y5440D3*
Y4692D3*
X6221Y5066D3*
D17*
X8690Y11440D3*
X9690D3*
X10690Y10440D3*
Y9440D3*
Y8440D3*
Y7440D3*
Y6440D3*
X8690Y4440D3*
X7690D3*
X9690D3*
X6690D3*
X10690Y5440D3*
D18*
X4690Y10190D3*
Y7815D3*
X6315Y10190D3*
Y7815D3*
X7940Y10190D3*
Y7815D3*
X9565Y10190D3*
Y7815D3*
D19*
X7190Y5690D3*
X9565D3*
D20*
X4315Y5190D3*
Y5938D3*
D17*
X7690Y11440D3*
X6690D3*
X5690D3*
X4690D3*
M02*
